<?xml version="1.0" standalone="no"?>
<svg xmlns:xlink="http://www.w3.org/1999/xlink" id="wave" style="transform:rotate(0deg); transition: 0.3s" viewBox="0 0 1440 490" version="1.1" xmlns="http://www.w3.org/2000/svg"><defs><linearGradient id="sw-gradient-0" x1="0" x2="0" y1="1" y2="0"><stop stop-color="rgba(232.552, 9.929, 9.929, 1)" offset="0%"/><stop stop-color="rgba(23.088, 22.7, 21.842, 1)" offset="100%"/></linearGradient></defs><path style="transform:translate(0, 0px); opacity:1" fill="url(#sw-gradient-0)" d="M0,49L26.7,65.3C53.3,82,107,114,160,122.5C213.3,131,267,114,320,155.2C373.3,196,427,294,480,351.2C533.3,408,587,425,640,400.2C693.3,376,747,310,800,269.5C853.3,229,907,212,960,236.8C1013.3,261,1067,327,1120,367.5C1173.3,408,1227,425,1280,432.8C1333.3,441,1387,441,1440,441C1493.3,441,1547,441,1600,441C1653.3,441,1707,441,1760,392C1813.3,343,1867,245,1920,179.7C1973.3,114,2027,82,2080,98C2133.3,114,2187,180,2240,171.5C2293.3,163,2347,82,2400,40.8C2453.3,0,2507,0,2560,32.7C2613.3,65,2667,131,2720,196C2773.3,261,2827,327,2880,367.5C2933.3,408,2987,425,3040,375.7C3093.3,327,3147,212,3200,204.2C3253.3,196,3307,294,3360,277.7C3413.3,261,3467,131,3520,89.8C3573.3,49,3627,98,3680,155.2C3733.3,212,3787,278,3813,310.3L3840,343L3840,490L3813.3,490C3786.7,490,3733,490,3680,490C3626.7,490,3573,490,3520,490C3466.7,490,3413,490,3360,490C3306.7,490,3253,490,3200,490C3146.7,490,3093,490,3040,490C2986.7,490,2933,490,2880,490C2826.7,490,2773,490,2720,490C2666.7,490,2613,490,2560,490C2506.7,490,2453,490,2400,490C2346.7,490,2293,490,2240,490C2186.7,490,2133,490,2080,490C2026.7,490,1973,490,1920,490C1866.7,490,1813,490,1760,490C1706.7,490,1653,490,1600,490C1546.7,490,1493,490,1440,490C1386.7,490,1333,490,1280,490C1226.7,490,1173,490,1120,490C1066.7,490,1013,490,960,490C906.7,490,853,490,800,490C746.7,490,693,490,640,490C586.7,490,533,490,480,490C426.7,490,373,490,320,490C266.7,490,213,490,160,490C106.7,490,53,490,27,490L0,490Z"/></svg>